<?xml version="1.0" encoding="utf-8"?>
<!-- Uploaded to: SVG Repo, www.svgrepo.com, Generator: SVG Repo Mixer Tools -->
<svg width="800px" height="800px" viewBox="0 0 1024 1024" class="icon"  version="1.1" xmlns="http://www.w3.org/2000/svg"><path d="M264.7 350h495.8v539.6H264.7z" fill="#333E48" /><path d="M264.7 350h495.8v167.1H264.7z" fill="" /><path d="M535.8 85.2c-12.7-9.5-33.5-9.5-46.3 0L201.6 300.4c-12.7 9.5-10.1 17.3 5.7 17.3h610.6c15.9 0 18.5-7.8 5.7-17.3L535.8 85.2zM194.5 425.2h155.4V828H194.5z" fill="#D1D3D3" /><path d="M194.5 425.2h155.4v40.5H194.5z" fill="" /><path d="M349.9 437.7c13.1 0 23.8-10.6 23.8-23.8 0-13.1-10.6-23.8-23.8-23.8H194.5c-13.1 0-23.8 10.6-23.8 23.8 0 13.1 10.6 23.8 23.8 23.8h155.4zM349.9 815.6h-63.3V479.7h-28.9v335.9h-63.3c-13.1 0-23.8 10.6-23.8 23.8 0 13.1 10.6 23.8 23.8 23.8h155.5c13.1 0 23.8-10.6 23.8-23.8 0-13.2-10.6-23.8-23.8-23.8z" fill="#A4A9AD" /><path d="M434.9 425.2h155.4V828H434.9z" fill="#D1D3D3" /><path d="M434.9 425.2h155.4v40.5H434.9z" fill="" /><path d="M590.4 437.7c13.1 0 23.8-10.6 23.8-23.8 0-13.1-10.6-23.8-23.8-23.8H434.9c-13.1 0-23.8 10.6-23.8 23.8 0 13.1 10.6 23.8 23.8 23.8h155.5zM590.4 815.6h-63.3V479.7h-28.9v335.9h-63.3c-13.1 0-23.8 10.6-23.8 23.8 0 13.1 10.6 23.8 23.8 23.8h155.5c13.1 0 23.8-10.6 23.8-23.8-0.1-13.2-10.7-23.8-23.8-23.8z" fill="#A4A9AD" /><path d="M675.3 425.2h155.4V828H675.3z" fill="#D1D3D3" /><path d="M675.3 425.2h155.4v40.5H675.3z" fill="" /><path d="M830.8 437.7c13.1 0 23.8-10.6 23.8-23.8 0-13.1-10.6-23.8-23.8-23.8H675.3c-13.1 0-23.8 10.6-23.8 23.8 0 13.1 10.6 23.8 23.8 23.8h155.5zM830.8 815.6h-63.3V479.7h-28.9v335.9h-63.3c-13.1 0-23.8 10.6-23.8 23.8 0 13.1 10.6 23.8 23.8 23.8h155.5c13.1 0 23.8-10.6 23.8-23.8-0.1-13.2-10.7-23.8-23.8-23.8z" fill="#A4A9AD" /><path d="M897.3 906.6c0 5.2-4.3 9.5-9.5 9.5H137.5c-5.2 0-9.5-4.3-9.5-9.5v-34c0-5.2 4.3-9.5 9.5-9.5h750.3c5.2 0 9.5 4.3 9.5 9.5v34z" fill="#D1D3D3" /><path d="M941.2 950.1c0 5.2-4.3 9.5-9.5 9.5H93.6c-5.2 0-9.5-4.3-9.5-9.5v-34c0-5.2 4.3-9.5 9.5-9.5h838.1c5.2 0 9.5 4.3 9.5 9.5v34zM868.2 299c0-10.6-8.7-19.3-19.3-19.3H176.3c-10.6 0-19.3 8.7-19.3 19.3v41.2c0 10.6 8.7 19.3 19.3 19.3H849c10.6 0 19.3-8.7 19.3-19.3V299z" fill="#A4A9AD" /><path d="M907.5 348c0-10.6-8.7-19.3-19.3-19.3H137c-10.6 0-19.3 8.7-19.3 19.3v22.9c0 10.6 8.7 19.3 19.3 19.3h751.3c10.6 0 19.3-8.7 19.3-19.3V348z" fill="#D1D3D3" /><path d="M512.6 163.3m-97.1 0a97.1 97.1 0 1 0 194.2 0 97.1 97.1 0 1 0-194.2 0Z" fill="#A4A9AD" /><path d="M519.5 169.1v26.4c9.3-1 14.3-5.6 14.3-12.6 0-6.4-3.2-10.3-14.3-13.8zM508 149v-25.6c-9.3 0.9-13.9 5.8-13.9 12.2 0 6 2.8 9.8 13.9 13.4z m5.8-49.4c3.5 0 6.2 2.8 6.2 6.2v3.2c8.5 1 15.8 3.8 22.5 8 2.3 1.3 4.3 3.5 4.3 6.9 0 4.5-3.6 8-8.1 8-1.4 0-2.9-0.4-4.3-1.3-5.1-3-10-5.2-14.9-6.4V152c22 5.5 31.4 14.3 31.4 29.8 0 15.9-12.5 26.5-30.9 28.2v8.7c0 3.5-2.8 6.2-6.2 6.2-3.5 0-6.4-2.8-6.4-6.2v-9c-10.9-1.2-20.9-5.1-29.7-11.3-2.5-1.6-3.9-3.9-3.9-7 0-4.5 3.5-8 8-8 1.7 0 3.5 0.6 4.8 1.6 6.8 4.9 13.5 8.3 21.4 9.7v-28.5c-21.1-5.5-31-13.5-31-29.8 0-15.5 12.3-26.2 30.4-27.7v-3c0.1-3.3 2.9-6.1 6.4-6.1z" fill="#D1D3D3" /></svg>